<?xml version="1.0" encoding="iso-8859-1"?>
<!-- Uploaded to: SVG Repo, www.svgrepo.com, Generator: SVG Repo Mixer Tools -->
<svg fill="#000000" height="800px" width="800px" version="1.1" id="Layer_1" xmlns="http://www.w3.org/2000/svg" xmlns:xlink="http://www.w3.org/1999/xlink" 
	 viewBox="0 0 512 512" xml:space="preserve">
<g>
	<g>
		<path d="M336.491,223.465l-1.683-2.949c-7.277-12.761-6.618-28.774,1.68-40.795c13.878-20.105,16.222-25.576,16.222-31.81
			c0-23.28-14.062-43.328-34.133-52.125V0H193.422v95.787c-20.072,8.796-34.133,28.844-34.133,52.125
			c0,6.234,2.345,11.706,16.224,31.81c8.299,12.021,8.958,28.035,1.681,40.795l-1.683,2.949
			c-23.603,41.332-50.355,88.181-50.355,169.067c0,46.764,17.993,86.682,52.035,115.438l4.77,4.029h148.077l4.77-4.029
			c34.045-28.756,52.037-68.674,52.037-115.438C386.844,311.648,360.093,264.798,336.491,223.465z M227.556,34.133h56.889v56.889
			h-56.889V34.133z M317.322,477.867H194.678c-23.488-21.912-35.389-50.589-35.389-85.333c0-71.827,23.314-112.657,45.862-152.141
			l1.691-2.964c13.737-24.086,12.467-54.348-3.238-77.098c-5.905-8.555-8.704-13.096-9.993-15.347
			c1.443-11.17,11.014-19.827,22.568-19.827h79.644c11.554,0,21.125,8.657,22.568,19.827c-1.289,2.252-4.088,6.794-9.993,15.347
			c-15.705,22.75-16.976,53.013-3.238,77.098l1.691,2.964c22.547,39.484,45.862,80.315,45.862,152.141
			C352.711,427.278,340.81,455.954,317.322,477.867z"/>
	</g>
</g>
<g>
	<g>
		<path d="M277.209,257.316l-1.701-2.978c-9.981-17.5-19.508-32.472-19.508-32.472s-12.805,20.718-19.508,32.472l-1.7,2.978
			c-22.198,38.876-41.37,72.449-41.37,135.217c0,20.425,5.296,37.316,16.122,51.2h92.911c10.826-13.884,16.122-30.775,16.122-51.2
			C318.578,329.766,299.406,296.192,277.209,257.316z M282.246,409.6h-52.494c-1.484-4.996-2.198-10.625-2.198-17.067
			c0-46.355,11.523-72.883,28.444-103.385c16.921,30.503,28.444,57.027,28.444,103.385
			C284.444,398.975,283.729,404.604,282.246,409.6z"/>
	</g>
</g>
</svg>